<?xml version="1.0" standalone="no"?>
<!DOCTYPE svg PUBLIC "-//W3C//DTD SVG 20010904//EN"
 "http://www.w3.org/TR/2001/REC-SVG-20010904/DTD/svg10.dtd">
<svg version="1.0" xmlns="http://www.w3.org/2000/svg"
 width="177.000000pt" height="177.000000pt" viewBox="0 0 177.000000 177.000000"
 preserveAspectRatio="xMidYMid meet">
<metadata>
Created by potrace 1.11, written by Peter Selinger 2001-2013
</metadata>
<g transform="translate(0.000000,177.000000) scale(0.100000,-0.100000)"
fill="#000000" stroke="none">
<path d="M190 1413 c1 -24 9 -32 53 -52 42 -20 135 -73 275 -156 130 -77 239
-162 352 -273 72 -71 98 -92 109 -85 8 5 17 15 19 22 7 20 -216 233 -293 281
-20 12 -41 27 -48 34 -13 13 -143 93 -217 134 -25 13 -49 28 -55 32 -20 15
-173 90 -184 90 -6 0 -11 -12 -11 -27z"/>
<path d="M317 994 c-13 -13 -7 -44 8 -44 27 0 30 -1 53 -16 12 -8 22 -12 22
-8 0 4 6 2 13 -4 7 -6 35 -18 62 -27 28 -9 59 -20 70 -24 11 -5 51 -21 88 -36
38 -16 104 -49 148 -75 73 -44 79 -46 94 -30 8 9 15 19 15 22 0 23 -272 162
-360 183 -18 5 -84 29 -125 46 -38 16 -79 22 -88 13z"/>
<path d="M1260 867 c-3 -3 -25 -8 -49 -12 -59 -9 -88 -21 -100 -42 -5 -10 -31
-41 -59 -69 -27 -28 -50 -57 -51 -65 -1 -8 -3 -41 -6 -74 -3 -56 -1 -65 28
-103 33 -43 123 -96 182 -107 54 -10 139 -6 178 7 127 45 211 189 189 326 -6
40 -57 95 -109 118 -37 15 -193 32 -203 21z m156 -67 c83 -36 112 -77 109
-156 -2 -87 -43 -157 -111 -189 -39 -18 -152 -22 -182 -6 -11 6 -22 8 -24 5
-8 -8 -94 41 -123 70 -87 87 -46 221 75 242 14 2 33 15 44 28 16 22 26 24 95
24 51 0 89 -5 117 -18z"/>
</g>
</svg>
